<svg xmlns="http://www.w3.org/2000/svg" width="100%" height="100%" viewBox="0 0 149.6 32.79"><title>logo</title><g id="Layer_2" data-name="Layer 2"><g id="Layer_1-2" data-name="Layer 1"><path d="M0,32.28V.38H7.1c2.82,0,5.25.09,7.58,1.74a8.88,8.88,0,0,1,3.74,7.19,7.19,7.19,0,0,1-3.93,6.6c3,1.27,4.52,4.65,4.52,7.4,0,6.31-5.35,9-12,9ZM7.24,5.67v7.78c2.72,0,4.33-1.6,4.33-4S10,5.54,7.24,5.67Zm0,12.69V27a4.11,4.11,0,0,0,4.62-4.4C11.86,20.1,10.11,18.28,7.24,18.36Z" fill="#231f20"/><path d="M30.53.38v26h7.58v5.92H23.28V.38Z" fill="#231f20"/><path d="M76.63,6.39a12.14,12.14,0,0,0-2.73-.34c-6.36,0-9.13,5-9.13,9.94,0,4.74,2.77,10.58,9.09,10.58a10.38,10.38,0,0,0,2.77-.47v6a10,10,0,0,1-3.36.55C62.82,32.62,57,24.41,57,16A15.84,15.84,0,0,1,72.93,0a12.29,12.29,0,0,1,3.7.59Z" fill="#231f20"/><path d="M87.56.38V14.64h.1l6-14.26h7.39L94.32,15.1,102,32.28H94.32L87.66,16h-.1V32.28H80.32V.38Z" fill="#231f20"/><path d="M124.91.38v31.9h-7V5.88h-3.5V.38Z" fill="#231f20"/><path d="M144.55.38l-7,12.44.09.08a6.92,6.92,0,0,1,4.57-1.73c5.54,0,7.39,6,7.39,9.9,0,5.71-2.58,11.72-10.26,11.72-7.29,0-10-5.63-10-11.21,0-5.8,2.43-10.66,5.2-15.78l3-5.42Zm-8.17,21.87c0,1.53.63,5.17,3.06,5.17,2.77,0,3.11-4.07,3.11-5.67s-.44-5-2.91-5C136.91,16.75,136.38,20.65,136.38,22.25Z" fill="#231f20"/><path d="M53.36,11.13c0,5.45-2,11.08-9.33,11.08S34.7,16.58,34.7,11.13,36.69,0,44,0,53.36,5.67,53.36,11.13Zm-11.81,0c0,1.22.1,5.75,2.48,5.75s2.48-4.53,2.48-5.75S46.41,5.37,44,5.37,41.55,9.9,41.55,11.13Z" fill="#231f20"/></g></g></svg>