<svg xmlns="http://www.w3.org/2000/svg" width="100%" height="100%" viewBox="0 0 56.07 53.18"><title>metamask icon light</title><g id="Layer_2" data-name="Layer 2"><g id="Layer_1-2" data-name="Layer 1"><g opacity="0.92"><path d="M52.2,26c1.08,3.77,2.18,7.55,3.25,11.33a3.39,3.39,0,0,1,0,.9l-10.19.38-6.22.2-6,5.24-1.47-.73h-6l-.81.51c-3.14-.61-4.51-3.73-7.17-5l-6.75-.2L.32,38.27c1.1-3.58,2.21-7.15,3.3-10.73a12.24,12.24,0,0,0,.28-1.49l11.4-3.27-2.71,5.4L13,29.34l4.68,9.47c-.11-2.3-.48-4.05-.54-5.41l6.47,1.78,1.75,7.93c0-2.29.28-4.24-.07-6.06-.53-2.76.93-5.61-.51-8.28h0l-1-12.61.09-.33L20.71,6.34l14.68,0c-.55,1.6-1.14,3.19-1.63,4.82S32.9,14.41,32.48,16h0l-.57,13.13V42.68l1.16-7.15.57-.14c1.81-.53,3.84-1.45,5.64-2,0,1.44-.22,3.27-.22,5.21l4.44-9.45.39-1L40.8,22.76Z" fill="#eff1f2"/><path d="M33.06,44.58,39.62,47c-2.28,2-4.57,4.09-6.9,6.16H24.49L16.28,47.1l8-2.7C24.14,46,24,47.58,23.86,49h9.48Z" fill="#eff1f2"/></g><g opacity="0.32"><path d="M12.59,28.21l12.17.59h0l-1.17,6.41c-.05,0-1.23-2.92-1.87-4.39-1.36.87-4.4,2.53-4.6,2.61-1.48-1.49-2.66-2.58-4.14-4.06Z" fill="#eff1f2"/><path d="M31.91,29.18l12-1-.39,1-4.22,4.24L34.85,31l-1.78,4.52c-.38-1.8-.78-4-1.16-5.8Z" fill="#eff1f2"/><path d="M17.61,38.84l-1.07,8-5.68-8.19Z" fill="#eff1f2"/><path d="M45.26,38.64,39.84,46.9c-.3-3.08-.55-5.57-.79-8.07Z" fill="#eff1f2"/></g><g opacity="0.66"><path d="M17.61,38.84c2.66,1.3,4,4.42,7.17,5l-.5.56-8,2.69-12.2,3L.32,38.29l10.54.36,5.68,8.19Z" fill="#eff1f2"/><path d="M33.06,44.08l6-5.25c.24,2.5.49,5,.79,8.07l5.42-8.26,10.19-.39Q53.66,44,51.89,49.85l-12.27-2.8-6.56-2.44Z" fill="#eff1f2"/><path d="M53.19.39l-20,14.74a4.45,4.45,0,0,0-.72.92c.42-1.61.8-3.24,1.28-4.84S34.84,8,35.39,6.4Z" fill="#eff1f2"/><path d="M23.86,15.86,4.81,1.58C4.22,1.14,3.67.66,3.1.2L20.71,6.37Z" fill="#eff1f2"/><path d="M15.3,22.81l8.47-6.62,1,12.61-12.17-.59Z" fill="#eff1f2"/><path d="M32.48,16.05l8.32,6.73,3.09,5.43-12,1Z" fill="#eff1f2"/><path d="M23.59,35.21l1.17-6.41c1.44,2.67,0,5.52.51,8.28a34.3,34.3,0,0,1,.07,6.05Z" fill="#eff1f2"/><path d="M13,29.37c1.48,1.48,2.66,2.57,4.14,4.06.06,1.35.43,3.11.54,5.4Z" fill="#eff1f2"/><path d="M39.28,33.43l4.22-4.24-4.44,9.45c0-2,.22-3.77.22-5.21Z" fill="#eff1f2"/><path d="M33.07,35.56h0L31.91,42.7V29.76C32.29,31.55,32.69,33.76,33.07,35.56Z" fill="#eff1f2"/></g><g opacity="0.38"><path d="M23.86,15.86l-.09.33L15.3,22.81,3.9,26.08,1.51,23.23l.94-.85L.8,20.81,2,19.71.33,18.41l1.35-1.25A18.11,18.11,0,0,1,2.71,0L3.1.2c.57.46,1.12.94,1.71,1.38Z" fill="#eff1f2"/><path d="M52.2,26,40.8,22.78l-8.32-6.73h0a4.45,4.45,0,0,1,.72-.92L53.19.39l.37-.2a18.24,18.24,0,0,1,.77,17l1.34,1.21L54,19.73l1.19,1.1-1.67,1.53,1,.85Z" fill="#eff1f2"/><path d="M33.06,44.61l.28,4.44H23.86c.13-1.45.28-3,.42-4.62l.5-.56.81-.51h6l1.47.73Z" fill="#eff1f2"/></g></g></g></svg>