<svg xmlns="http://www.w3.org/2000/svg" width="100%" height="100%" viewBox="0 0 56.83 53.94"><title>metamask icon</title><g id="Layer_2" data-name="Layer 2"><g id="Layer_1-2" data-name="Layer 1"><g opacity="0.35"><path d="M52.91,26.38c1.1,3.83,2.21,7.65,3.3,11.48a3.16,3.16,0,0,1,0,.92l-10.32.39-6.3.19-6.07,5.32L32,43.94H25.93l-.81.52c-3.18-.62-4.58-3.78-7.27-5.1L11,39.18.33,38.82c1.11-3.63,2.24-7.25,3.34-10.88A14.91,14.91,0,0,0,4,26.43l11.55-3.31L12.76,28.6l.4,1.17,4.74,9.6c-.11-2.33-.48-4.11-.55-5.49l6.56,1.81,1.78,8c0-2.32.28-4.29-.07-6.13-.54-2.8.94-5.69-.52-8.4h0l-1-12.78.09-.33Q22.59,11.27,21,6.45l14.88,0c-.55,1.63-1.15,3.24-1.65,4.89s-.87,3.27-1.3,4.9h0l-.58,13.31V43.29L33.52,36l.58-.14c1.83-.54,3.89-1.47,5.72-2,0,1.46-.23,3.31-.23,5.28l4.51-9.58.39-1-3.14-5.51Z"/><path d="M33.51,45.22l6.66,2.47-7,6.25H24.83L16.5,47.77,24.61,45c-.14,1.61-.29,3.22-.42,4.68H33.8Z"/></g><g opacity="0.8"><path d="M12.76,28.6l12.34.59h0c-.4,2.17-.79,4.34-1.19,6.5-.05,0-1.24-2.95-1.89-4.45-1.38.88-4.46,2.57-4.67,2.64-1.5-1.5-2.69-2.6-4.19-4.11Z"/><path d="M32.35,29.58l12.14-1-.39,1-4.28,4.3-4.49-2.42L33.52,36c-.38-1.81-.79-4.05-1.18-5.87Z"/><path d="M17.85,39.37l-1.08,8.11L11,39.18Z"/><path d="M45.88,39.17l-5.5,8.37c-.3-3.12-.55-5.65-.8-8.18Z"/></g><g opacity="0.65"><path d="M17.85,39.37c2.69,1.32,4.09,4.48,7.27,5.1l-.51.57L16.5,47.77,4.13,50.83l-3.8-12L11,39.18l5.77,8.3Z"/><path d="M33.51,44.68l6.07-5.32c.25,2.53.5,5.06.8,8.18l5.5-8.37,10.32-.39L52.6,50.53,40.17,47.69l-6.66-2.47Z"/><path d="M53.91.4Q43.79,7.87,33.66,15.34a4.59,4.59,0,0,0-.74.93c.43-1.63.81-3.29,1.3-4.9s1.1-3.26,1.65-4.89Z"/><path d="M24.18,16.08,4.88,1.6C4.28,1.16,3.72.67,3.14.2L21,6.45Q22.6,11.27,24.18,16.08Z"/><path d="M15.51,23.12l8.58-6.71q.51,6.39,1,12.78L12.76,28.6Z"/><path d="M32.93,16.27l8.42,6.82,3.14,5.51-12.14,1Q32.64,22.94,32.93,16.27Z"/><path d="M23.91,35.69c.4-2.16.79-4.33,1.19-6.5,1.46,2.71,0,5.6.52,8.4.35,1.84.07,3.81.07,6.13Z"/><path d="M13.16,29.77c1.5,1.51,2.69,2.61,4.19,4.11.07,1.38.44,3.16.55,5.49Z"/><path d="M39.82,33.89l4.28-4.3-4.51,9.58c0-2,.23-3.82.23-5.28Z"/><path d="M33.52,36h0l-1.18,7.25V30.17C32.73,32,33.14,34.23,33.52,36Z"/></g><path d="M24.18,16.08l-.09.33-8.58,6.71L4,26.43,1.53,23.55l1-.86L.81,21.1,2,20,.34,18.66,1.7,17.4A18.36,18.36,0,0,1,2.75,0l.39.2c.58.47,1.14,1,1.74,1.4Z"/><path d="M52.91,26.38,41.35,23.09l-8.42-6.82h0a4.59,4.59,0,0,1,.74-.93Q43.77,7.86,53.91.4L54.3.2a18.53,18.53,0,0,1,.77,17.26l1.36,1.22L54.78,20,56,21.11l-1.69,1.55,1,.86Z"/><path d="M33.51,45.22l.29,4.5H24.19c.13-1.46.28-3.07.42-4.68l.51-.57.81-.52H32l1.49.74Z"/></g></g></svg>