<svg xmlns="http://www.w3.org/2000/svg" width="100%" height="100%" viewBox="0 0 41.7 53"><title>utc icon light</title><g id="Layer_2" data-name="Layer 2"><g id="Layer_1-2" data-name="Layer 1"><path d="M14.74,0,0,14.74v2.64H0V53H41.7V0ZM37.36,48.66h-33V17.38h13v-13h20Z" fill="#eff1f2"/><path d="M17.44,35.36C16.87,36.5,15.81,37,14.16,37s-2.72-.51-3.29-1.65a6.86,6.86,0,0,1-.34-2.82v-7.3h2.31v7.48c0,1.5.1,2.25,1.32,2.25s1.32-.68,1.32-2.25V25.24h2.3v7.3A6.59,6.59,0,0,1,17.44,35.36Z" fill="#eff1f2"/><path d="M19.18,27.4V25.24h5.88V27.4H23.29v9.46H21V27.4Z" fill="#eff1f2"/><path d="M30.85,37c-2.92,0-5-2.31-5-5.85,0-3.72,2.06-6.06,4.91-6.06a3.7,3.7,0,0,1,1.45.27v2.17a3.43,3.43,0,0,0-1.27-.26c-1.49,0-2.61,1.4-2.61,3.75s1.17,3.65,2.66,3.65a3,3,0,0,0,1.22-.28v2.33A3.44,3.44,0,0,1,30.85,37Z" fill="#eff1f2"/></g></g></svg>